<svg width="48" height="58" viewBox="305 240 48 58" xmlns="http://www.w3.org/2000/svg">
<path data-letter="p"  d="M349.901 258.92C349.901 262.173 349.154 265.16 347.661 267.88C346.167 270.547 343.874 272.707 340.781 274.36C337.687 276.013 333.847 276.84 329.261 276.84H320.781V297H307.101V240.84H329.261C333.741 240.84 337.527 241.613 340.621 243.16C343.714 244.707 346.034 246.84 347.581 249.56C349.127 252.28 349.901 255.4 349.901 258.92ZM328.221 265.96C330.834 265.96 332.781 265.347 334.061 264.12C335.341 262.893 335.981 261.16 335.981 258.92C335.981 256.68 335.341 254.947 334.061 253.72C332.781 252.493 330.834 251.88 328.221 251.88H320.781V265.96H328.221Z" fill="#2196f3"/>
</svg>


