<svg width="70" height="60" viewBox="240 0 70 60" xmlns="http://www.w3.org/2000/svg">
<path
        data-letter="r"
        d="M280.897 57L269.217 35.8H265.937V57H252.257V0.839998H275.217C279.644 0.839998 283.404 1.61333 286.497 3.16C289.644 4.70666 291.99 6.84 293.537 9.56C295.084 12.2267 295.857 15.2133 295.857 18.52C295.857 22.2533 294.79 25.5867 292.657 28.52C290.577 31.4533 287.484 33.5333 283.377 34.76L296.337 57H280.897ZM265.937 26.12H274.417C276.924 26.12 278.79 25.5067 280.017 24.28C281.297 23.0533 281.937 21.32 281.937 19.08C281.937 16.9467 281.297 15.2667 280.017 14.04C278.79 12.8133 276.924 12.2 274.417 12.2H265.937V26.12Z"
        fill="#2196f3"
      />
</svg>


