<svg width="70" height="60" viewBox="185 0 70 60" xmlns="http://www.w3.org/2000/svg">
<path
        data-letter="o"
        d="M215.926 57.56C210.646 57.56 205.793 56.3333 201.366 53.88C196.993 51.4267 193.5 48.0133 190.886 43.64C188.326 39.2133 187.046 34.2533 187.046 28.76C187.046 23.2667 188.326 18.3333 190.886 13.96C193.5 9.58666 196.993 6.17334 201.366 3.72C205.793 1.26667 210.646 0.039999 215.926 0.039999C221.206 0.039999 226.033 1.26667 230.406 3.72C234.833 6.17334 238.3 9.58666 240.806 13.96C243.366 18.3333 244.646 23.2667 244.646 28.76C244.646 34.2533 243.366 39.2133 240.806 43.64C238.246 48.0133 234.78 51.4267 230.406 53.88C226.033 56.3333 221.206 57.56 215.926 57.56ZM215.926 45.08C220.406 45.08 223.98 43.5867 226.646 40.6C229.366 37.6133 230.726 33.6667 230.726 28.76C230.726 23.8 229.366 19.8533 226.646 16.92C223.98 13.9333 220.406 12.44 215.926 12.44C211.393 12.44 207.766 13.9067 205.046 16.84C202.38 19.7733 201.046 23.7467 201.046 28.76C201.046 33.72 202.38 37.6933 205.046 40.68C207.766 43.6133 211.393 45.08 215.926 45.08Z"
        fill="#2196f3"
      /> 
</svg>


