<svg width="48" height="58" viewBox="422 120 48 58" xmlns="http://www.w3.org/2000/svg">
<path data-letter="d"  d="M440.094 120.84C446.014 120.84 451.187 122.013 455.614 124.36C460.04 126.707 463.454 130.013 465.854 134.28C468.307 138.493 469.534 143.373 469.534 148.92C469.534 154.413 468.307 159.293 465.854 163.56C463.454 167.827 460.014 171.133 455.534 173.48C451.107 175.827 445.96 177 440.094 177H419.054V120.84H440.094ZM439.214 165.16C444.387 165.16 448.414 163.747 451.294 160.92C454.174 158.093 455.614 154.093 455.614 148.92C455.614 143.747 454.174 139.72 451.294 136.84C448.414 133.96 444.387 132.52 439.214 132.52H432.734V165.16H439.214Z" fill="#2196f3"/>
</svg>


