<svg width="48" height="58" viewBox="48 0 48 58" xmlns="http://www.w3.org/2000/svg">
<path d="M62.65 0.839998V34.44C62.65 37.8 63.4767 40.3867 65.13 42.2C66.7833 44.0133 69.21 44.92 72.41 44.92C75.61 44.92 78.0633 44.0133 79.77 42.2C81.4767 40.3867 82.33 37.8 82.33 34.44V0.839998H96.01V34.36C96.01 39.3733 94.9433 43.6133 92.81 47.08C90.6767 50.5467 87.7967 53.16 84.17 54.92C80.5967 56.68 76.5967 57.56 72.17 57.56C67.7433 57.56 63.77 56.7067 60.25 55C56.7833 53.24 54.0367 50.6267 52.01 47.16C49.9833 43.64 48.97 39.3733 48.97 34.36V0.839998H62.65Z"
        fill="#2196f3"
      />
</svg>
